HIERARCHY
ROOT Hips
{
  OFFSET 20.5025 89.2184 -21.1374
  CHANNELS 6 Xposition Yposition Zposition Zrotation Xrotation Yrotation
  JOINT RightUpLeg
  {
    OFFSET -9.32418 -1.57119 -0.025657
    CHANNELS 3 Zrotation Xrotation Yrotation
    JOINT RightLeg
    {
      OFFSET -0.0960642 -41.8747 0.0520458
      CHANNELS 3 Zrotation Xrotation Yrotation
      JOINT RightFoot
      {
        OFFSET -0.946809 -41.5361 -0.0790467
        CHANNELS 3 Zrotation Xrotation Yrotation
        End Site
        {
          OFFSET 0 -7.69 17.5
        }
      }
    }
  }
  JOINT LeftUpLeg
  {
    OFFSET 9.29131 -1.5975 0.016395
    CHANNELS 3 Zrotation Xrotation Yrotation
    JOINT LeftLeg
    {
      OFFSET 0.0745403 -41.866 0.0326132
      CHANNELS 3 Zrotation Xrotation Yrotation
      JOINT LeftFoot
      {
        OFFSET -0.351076 -42.0262 0.246541
        CHANNELS 3 Zrotation Xrotation Yrotation
        End Site
        {
          OFFSET 0 -7.69 17.5
        }
      }
    }
  }
  JOINT Spine
  {
    OFFSET 0.0368046 14.2997 0.0305393
    CHANNELS 3 Zrotation Xrotation Yrotation
    JOINT Spine1
    {
      OFFSET 0.0160572 9.72186 0.0245355
      CHANNELS 3 Zrotation Xrotation Yrotation
      JOINT Spine2
      {
        OFFSET 0.0170914 10.1127 0.0244287
        CHANNELS 3 Zrotation Xrotation Yrotation
        JOINT Spine3
        {
          OFFSET 0.0355733 9.71175 0.0166032
          CHANNELS 3 Zrotation Xrotation Yrotation
          JOINT Neck
          {
            OFFSET -0.0373761 10.381 0.0200737
            CHANNELS 3 Zrotation Xrotation Yrotation
            JOINT Head
            {
              OFFSET 0.0251406 9.49255 0.0511295
              CHANNELS 3 Zrotation Xrotation Yrotation
              End Site
              {
                OFFSET 0 15.95 0
              }
            }
          }
          JOINT RightShoulder
          {
            OFFSET -3.16188 6.95189 0.0539135
            CHANNELS 3 Zrotation Xrotation Yrotation
            JOINT RightArm
            {
              OFFSET -12.8775 0.0419834 0.0957705
              CHANNELS 3 Zrotation Xrotation Yrotation
              JOINT RightForeArm
              {
                OFFSET -26.3807 0.021842 -0.143268
                CHANNELS 3 Zrotation Xrotation Yrotation
                JOINT RightHand
                {
                  OFFSET -26.0283 -0.00806752 -0.000571111
                  CHANNELS 3 Zrotation Xrotation Yrotation
                  JOINT RightHandThumb1
                  {
                    OFFSET -2.48905 0.190105 3.12053
                    CHANNELS 3 Zrotation Xrotation Yrotation
                    JOINT RightHandThumb2
                    {
                      OFFSET -3.68274 0 0
                      CHANNELS 3 Zrotation Xrotation Yrotation
                      JOINT RightHandThumb3
                      {
                        OFFSET -2.55832 0 0
                        CHANNELS 3 Zrotation Xrotation Yrotation
                        End Site
                        {
                          OFFSET -2.194 0 0
                        }
                      }
                    }
                  }
                  JOINT RightInHandIndex
                  {
                    OFFSET -3.22368 0.508421 1.97842
                    CHANNELS 3 Zrotation Xrotation Yrotation
                    JOINT RightHandIndex1
                    {
                      OFFSET -5.21684 -0.091368 0.999158
                      CHANNELS 3 Zrotation Xrotation Yrotation
                      JOINT RightHandIndex2
                      {
                        OFFSET -3.61937 0 0
                        CHANNELS 3 Zrotation Xrotation Yrotation
                        JOINT RightHandIndex3
                        {
                          OFFSET -2.0521 0 0
                          CHANNELS 3 Zrotation Xrotation Yrotation
                          End Site
                          {
                            OFFSET -1.805 0 0
                          }
                        }
                      }
                    }
                  }
                  JOINT RightInHandMiddle
                  {
                    OFFSET -3.38211 0.517263 0.756737
                    CHANNELS 3 Zrotation Xrotation Yrotation
                    JOINT RightHandMiddle1
                    {
                      OFFSET -5.17411 -0.084 0.313895
                      CHANNELS 3 Zrotation Xrotation Yrotation
                      JOINT RightHandMiddle2
                      {
                        OFFSET -3.94947 0 0
                        CHANNELS 3 Zrotation Xrotation Yrotation
                        JOINT RightHandMiddle3
                        {
                          OFFSET -2.47579 0 0
                          CHANNELS 3 Zrotation Xrotation Yrotation
                          End Site
                          {
                            OFFSET -1.975 0 0
                          }
                        }
                      }
                    }
                  }
                  JOINT RightInHandRing
                  {
                    OFFSET -3.36516 0.537895 -0.128947
                    CHANNELS 3 Zrotation Xrotation Yrotation
                    JOINT RightHandRing1
                    {
                      OFFSET -4.63474 -0.022105 -0.478947
                      CHANNELS 3 Zrotation Xrotation Yrotation
                      JOINT RightHandRing2
                      {
                        OFFSET -3.44238 0 0
                        CHANNELS 3 Zrotation Xrotation Yrotation
                        JOINT RightHandRing3
                        {
                          OFFSET -2.3881 0 0
                          CHANNELS 3 Zrotation Xrotation Yrotation
                          End Site
                          {
                            OFFSET -1.857 0 0
                          }
                        }
                      }
                    }
                  }
                  JOINT RightInHandPinky
                  {
                    OFFSET -3.16105 0.469368 -1.20179
                    CHANNELS 3 Zrotation Xrotation Yrotation
                    JOINT RightHandPinky1
                    {
                      OFFSET -4.14105 -0.022105 -1.09053
                      CHANNELS 3 Zrotation Xrotation Yrotation
                      JOINT RightHandPinky2
                      {
                        OFFSET -2.75653 0 0
                        CHANNELS 3 Zrotation Xrotation Yrotation
                        JOINT RightHandPinky3
                        {
                          OFFSET -1.74189 0 0
                          CHANNELS 3 Zrotation Xrotation Yrotation
                          End Site
                          {
                            OFFSET -1.645 0 0
                          }
                        }
                      }
                    }
                  }
                }
              }
            }
          }
          JOINT LeftShoulder
          {
            OFFSET 3.22497 6.89097 -0.0161007
            CHANNELS 3 Zrotation Xrotation Yrotation
            JOINT LeftArm
            {
              OFFSET 12.8034 -0.0603944 -0.0289408
              CHANNELS 3 Zrotation Xrotation Yrotation
              JOINT LeftForeArm
              {
                OFFSET 26.5164 -0.00331163 -0.0289653
                CHANNELS 3 Zrotation Xrotation Yrotation
                JOINT LeftHand
                {
                  OFFSET 25.9929 -0.00353192 -0.0207406
                  CHANNELS 3 Zrotation Xrotation Yrotation
                  JOINT LeftHandThumb1
                  {
                    OFFSET 2.48905 0.190105 3.12053
                    CHANNELS 3 Zrotation Xrotation Yrotation
                    JOINT LeftHandThumb2
                    {
                      OFFSET 3.68274 0 0
                      CHANNELS 3 Zrotation Xrotation Yrotation
                      JOINT LeftHandThumb3
                      {
                        OFFSET 2.55832 0 0
                        CHANNELS 3 Zrotation Xrotation Yrotation
                        End Site
                        {
                          OFFSET 2.194 0 0
                        }
                      }
                    }
                  }
                  JOINT LeftInHandIndex
                  {
                    OFFSET 3.22368 0.508421 1.97842
                    CHANNELS 3 Zrotation Xrotation Yrotation
                    JOINT LeftHandIndex1
                    {
                      OFFSET 5.21684 -0.091368 0.999158
                      CHANNELS 3 Zrotation Xrotation Yrotation
                      JOINT LeftHandIndex2
                      {
                        OFFSET 3.61937 0 0
                        CHANNELS 3 Zrotation Xrotation Yrotation
                        JOINT LeftHandIndex3
                        {
                          OFFSET 2.0521 0 0
                          CHANNELS 3 Zrotation Xrotation Yrotation
                          End Site
                          {
                            OFFSET 1.805 0 0
                          }
                        }
                      }
                    }
                  }
                  JOINT LeftInHandMiddle
                  {
                    OFFSET 3.38211 0.517263 0.756737
                    CHANNELS 3 Zrotation Xrotation Yrotation
                    JOINT LeftHandMiddle1
                    {
                      OFFSET 5.17411 -0.084 0.313895
                      CHANNELS 3 Zrotation Xrotation Yrotation
                      JOINT LeftHandMiddle2
                      {
                        OFFSET 3.94947 0 0
                        CHANNELS 3 Zrotation Xrotation Yrotation
                        JOINT LeftHandMiddle3
                        {
                          OFFSET 2.47579 0 0
                          CHANNELS 3 Zrotation Xrotation Yrotation
                          End Site
                          {
                            OFFSET 1.975 0 0
                          }
                        }
                      }
                    }
                  }
                  JOINT LeftInHandRing
                  {
                    OFFSET 3.36516 0.537895 -0.128947
                    CHANNELS 3 Zrotation Xrotation Yrotation
                    JOINT LeftHandRing1
                    {
                      OFFSET 4.63474 -0.022105 -0.478947
                      CHANNELS 3 Zrotation Xrotation Yrotation
                      JOINT LeftHandRing2
                      {
                        OFFSET 3.44238 0 0
                        CHANNELS 3 Zrotation Xrotation Yrotation
                        JOINT LeftHandRing3
                        {
                          OFFSET 2.3881 0 0
                          CHANNELS 3 Zrotation Xrotation Yrotation
                          End Site
                          {
                            OFFSET 1.857 0 0
                          }
                        }
                      }
                    }
                  }
                  JOINT LeftInHandPinky
                  {
                    OFFSET 3.16105 0.469368 -1.20179
                    CHANNELS 3 Zrotation Xrotation Yrotation
                    JOINT LeftHandPinky1
                    {
                      OFFSET 4.14105 -0.022105 -1.09053
                      CHANNELS 3 Zrotation Xrotation Yrotation
                      JOINT LeftHandPinky2
                      {
                        OFFSET 2.75653 0 0
                        CHANNELS 3 Zrotation Xrotation Yrotation
                        JOINT LeftHandPinky3
                        {
                          OFFSET 1.74189 0 0
                          CHANNELS 3 Zrotation Xrotation Yrotation
                          End Site
                          {
                            OFFSET 1.645 0 0
                          }
                        }
                      }
                    }
                  }
                }
              }
            }
          }
        }
      }
    }
  }
}
MOTION
Frames:	4
Frame Time:	0.00833333
1.50927 87.5239 -33.0071 2.16286 17.7726 -19.49 -6.64314 -29.9258 -0.29546 -0.309242 30.5421 0.582607 -3.32035 -12.6828 -9.86954 15.5413 -35.7616 7.06749 0.0402447 40.9227 -0.774164 0.476452 -16.8954 1.06401 0.530281 1.10077 0.486086 1.05208 2.18683 0.949329 1.05209 2.18683 0.949343 1.05209 2.18683 0.949317 7.64893 -0.570767 -0.600652 -9.06218 27.6553 1.22641 0.376047 0.124219 -0.045765 79.3083 25.9431 32.4641 -9.74438 -3.71753 17.3046 -1.37987 -31.9236 -4.55976 0 0 -6.36111e-15 -7.25317e-08 8.24098e-10 -2.87388e-05 -1.59028e-15 -6.36111e-15 -3.18055e-15 0 0 -6.36111e-15 0 0 -3.18055e-15 -3.18055e-15 0 -0 -1.59028e-15 -6.36111e-15 -3.18055e-15 0 0 -6.36111e-15 0 0 -3.18055e-15 5.88475e-05 1.85964e-09 8.19287e-09 -1.76556e-31 -3.18055e-15 -3.18055e-15 0 0 -6.36111e-15 0 0 -3.18055e-15 5.79944e-05 -2.33488e-08 -2.03695e-07 -0 -6.36111e-15 -0 0 0 -6.36111e-15 0 0 -3.18055e-15 0.000198188 -4.52037e-08 -9.07583e-08 -1.76556e-31 3.18055e-15 3.18055e-15 0.376047 0.124219 -0.045765 -32.1681 58.8893 -74.0781 12.9581 -6.41032 -23.1365 3.57007 -45.0897 8.85732 -3.18055e-15 3.18055e-15 7.95139e-15 -9.54166e-15 0 1.27222e-14 -1.59028e-15 -1.27222e-14 -3.18055e-15 -3.18055e-15 3.18055e-15 7.95139e-15 -9.54166e-15 0 1.27222e-14 -0.000189233 1.31077e-08 -1.55717e-07 4.77083e-15 -6.36111e-15 -6.36111e-15 -3.18055e-15 3.18055e-15 7.95139e-15 -9.54166e-15 0 1.27222e-14 -1.59028e-15 -1.27222e-14 -3.18055e-15 -4.77083e-15 3.18055e-15 -0 -3.18055e-15 3.18055e-15 7.95139e-15 -9.54166e-15 0 1.27222e-14 -1.59028e-15 -1.27222e-14 -3.18055e-15 -4.77083e-15 3.18055e-15 -0 -3.18055e-15 3.18055e-15 7.95139e-15 -9.54166e-15 0 1.27222e-14 -1.59028e-15 -1.27222e-14 -3.18055e-15 -4.77083e-15 3.18055e-15 -0 
1.524 87.5373 -33.002 2.15601 17.7795 -19.5033 -6.62862 -29.893 -0.280756 -0.308378 30.4689 0.582168 -3.31747 -12.6363 -9.8918 15.5612 -35.7922 7.14434 0.0421236 41.0276 -0.775396 0.492484 -16.9697 1.13027 0.530281 1.10077 0.486086 1.05208 2.18683 0.949329 1.05209 2.18683 0.949343 1.05209 2.18683 0.949317 7.64764 -0.562921 -0.600651 -9.06213 27.6533 1.22639 0.374686 0.124219 -0.045765 79.2975 25.9746 32.4593 -9.75214 -3.71729 17.3167 -1.38382 -31.9657 -4.56186 -1.76556e-31 -3.18055e-15 -3.18055e-15 -7.25317e-08 8.24091e-10 -2.87388e-05 -1.59028e-15 0 -0 -1.76556e-31 -3.18055e-15 -3.18055e-15 1.59028e-15 -3.18055e-15 6.36111e-15 3.53113e-31 -3.18055e-15 6.36111e-15 -0 -3.18055e-15 -0 -1.76556e-31 -3.18055e-15 -3.18055e-15 1.59028e-15 -3.18055e-15 6.36111e-15 5.88475e-05 1.85964e-09 8.19287e-09 1.59028e-15 0 -0 -1.76556e-31 -3.18055e-15 -3.18055e-15 1.59028e-15 -3.18055e-15 6.36111e-15 5.79944e-05 -2.33488e-08 -2.03695e-07 -1.76556e-31 3.18055e-15 3.18055e-15 -1.76556e-31 -3.18055e-15 -3.18055e-15 1.59028e-15 -3.18055e-15 6.36111e-15 0.000198188 -4.52037e-08 -9.07583e-08 1.59028e-15 9.54166e-15 3.18055e-15 0.374686 0.124219 -0.045765 -32.2709 58.8655 -73.968 12.9199 -6.40774 -23.1446 3.5627 -45.0558 8.84682 -1.59028e-15 0 1.59028e-14 -9.54166e-15 -3.18055e-15 -0 -7.95139e-15 3.18055e-15 -1.59028e-15 -1.59028e-15 0 1.59028e-14 -9.54166e-15 -3.18055e-15 -0 -0.000189233 1.31077e-08 -1.55717e-07 8.82781e-32 3.18055e-15 -1.59028e-15 -1.59028e-15 0 1.59028e-14 -9.54166e-15 -3.18055e-15 -0 -7.95139e-15 3.18055e-15 -1.59028e-15 3.18055e-15 6.36111e-15 3.18055e-15 -1.59028e-15 0 1.59028e-14 -9.54166e-15 -3.18055e-15 -0 -7.95139e-15 3.18055e-15 -1.59028e-15 3.18055e-15 6.36111e-15 3.18055e-15 -1.59028e-15 0 1.59028e-14 -9.54166e-15 -3.18055e-15 -0 -7.95139e-15 3.18055e-15 -1.59028e-15 3.18055e-15 6.36111e-15 3.18055e-15 
1.52557 87.5529 -33.0015 2.14456 17.7852 -19.5152 -6.60642 -29.8411 -0.260805 -0.307158 30.3653 0.581551 -3.31548 -12.5713 -9.93222 15.5865 -35.8316 7.2497 0.0447415 41.1732 -0.777117 0.516704 -17.0747 1.23003 0.530281 1.10077 0.486086 1.05208 2.18683 0.949329 1.05209 2.18683 0.949343 1.05209 2.18683 0.949317 7.63222 -0.544543 -0.600649 -9.05534 27.6358 1.22619 0.358752 0.124219 -0.045765 79.3009 26.0037 32.4512 -9.75877 -3.71707 17.3272 -1.38671 -31.9964 -4.56339 -1.59028e-15 0 -3.18055e-15 -7.25317e-08 8.24094e-10 -2.87388e-05 -3.18055e-15 -6.36111e-15 6.36111e-15 -1.59028e-15 0 -3.18055e-15 -1.59028e-15 0 -0 -3.18055e-15 0 3.18055e-15 0 0 -0 -1.59028e-15 0 -3.18055e-15 -1.59028e-15 0 -0 5.88475e-05 1.85964e-09 8.19287e-09 1.59028e-15 3.18055e-15 -3.18055e-15 -1.59028e-15 0 -3.18055e-15 -1.59028e-15 0 -0 5.79944e-05 -2.33488e-08 -2.03695e-07 0 0 -3.18055e-15 -1.59028e-15 0 -3.18055e-15 -1.59028e-15 0 -0 0.000198188 -4.52037e-08 -9.07583e-08 1.59028e-15 0 -0 0.358752 0.124219 -0.045765 -32.3327 58.7467 -73.7191 12.7628 -6.43981 -23.3103 3.54802 -44.9882 8.82584 3.18055e-15 3.18055e-15 3.18055e-15 -1.27222e-14 -3.18055e-15 -4.77083e-15 -1.59028e-15 -1.27222e-14 -7.95139e-15 3.18055e-15 3.18055e-15 3.18055e-15 -1.27222e-14 -3.18055e-15 -4.77083e-15 -0.000189233 1.31077e-08 -1.55717e-07 -1.59028e-15 6.36111e-15 -1.11319e-14 3.18055e-15 3.18055e-15 3.18055e-15 -1.27222e-14 -3.18055e-15 -4.77083e-15 -1.59028e-15 -1.27222e-14 -7.95139e-15 4.77083e-15 0 -1.59028e-15 3.18055e-15 3.18055e-15 3.18055e-15 -1.27222e-14 -3.18055e-15 -4.77083e-15 -1.59028e-15 -1.27222e-14 -7.95139e-15 4.77083e-15 0 -1.59028e-15 3.18055e-15 3.18055e-15 3.18055e-15 -1.27222e-14 -3.18055e-15 -4.77083e-15 -1.59028e-15 -1.27222e-14 -7.95139e-15 4.77083e-15 0 -1.59028e-15 
1.52589 87.5722 -33.0001 2.13929 17.7852 -19.5253 -6.59478 -29.79 -0.248014 -0.306037 30.2699 0.580985 -3.3142 -12.5162 -9.96864 15.5986 -35.8606 7.33548 0.0470218 41.2995 -0.77862 0.538593 -17.1698 1.31891 0.530281 1.10077 0.486086 1.05208 2.18683 0.949329 1.05209 2.18683 0.949343 1.05209 2.18683 0.949317 7.61363 -0.525326 -0.600647 -9.04247 27.616 1.22016 0.337818 0.124219 -0.045765 79.3238 26.0126 32.4397 -9.76264 -3.71703 17.3294 -1.38719 -32.0015 -4.56364 -3.18055e-15 6.36111e-15 -9.54166e-15 -7.25317e-08 8.24094e-10 -2.87388e-05 -3.18055e-15 0 3.18055e-15 -3.18055e-15 6.36111e-15 -9.54166e-15 1.59028e-15 3.18055e-15 3.18055e-15 -3.18055e-15 0 -0 4.77083e-15 6.36111e-15 -0 -3.18055e-15 6.36111e-15 -9.54166e-15 1.59028e-15 3.18055e-15 3.18055e-15 5.88475e-05 1.85964e-09 8.19287e-09 -1.59028e-15 3.18055e-15 -3.18055e-15 -3.18055e-15 6.36111e-15 -9.54166e-15 1.59028e-15 3.18055e-15 3.18055e-15 5.79944e-05 -2.33488e-08 -2.03695e-07 3.53113e-31 -3.18055e-15 6.36111e-15 -3.18055e-15 6.36111e-15 -9.54166e-15 1.59028e-15 3.18055e-15 3.18055e-15 0.000198188 -4.52037e-08 -9.07583e-08 1.59028e-15 3.18055e-15 -0 0.337818 0.124219 -0.045765 -32.5011 58.8439 -73.7585 12.8738 -6.38805 -23.1036 3.53349 -44.9208 8.80506 3.18055e-15 0 1.43125e-14 -6.36111e-15 0 -1.59028e-15 1.59028e-15 -3.18055e-15 1.59028e-15 3.18055e-15 0 1.43125e-14 -6.36111e-15 0 -1.59028e-15 -0.000189233 1.31077e-08 -1.55717e-07 3.18055e-15 1.27222e-14 -6.36111e-15 3.18055e-15 0 1.43125e-14 -6.36111e-15 0 -1.59028e-15 1.59028e-15 -3.18055e-15 1.59028e-15 4.77083e-15 -6.36111e-15 1.59028e-15 3.18055e-15 0 1.43125e-14 -6.36111e-15 0 -1.59028e-15 1.59028e-15 -3.18055e-15 1.59028e-15 4.77083e-15 -6.36111e-15 1.59028e-15 3.18055e-15 0 1.43125e-14 -6.36111e-15 0 -1.59028e-15 1.59028e-15 -3.18055e-15 1.59028e-15 4.77083e-15 -6.36111e-15 1.59028e-15 
